<svg width="60" height="65" viewBox="0 0 60 65" fill="none" xmlns="http://www.w3.org/2000/svg">
<path d="M6.9875 57.4058H45.6056L43.7613 51.434C44.0348 51.6723 59.5833 65 59.5833 65V6.70312C59.3992 3.07937 56.2792 0 52.4117 0L7.00104 0.008125C3.13625 0.008125 0 3.09292 0 6.71667V50.7C0 54.5215 3.13083 57.4058 6.9875 57.4058ZM35.555 15.3915L35.4656 15.424L35.4981 15.3915H35.555ZM14.8877 18.8283C19.8521 15.2154 24.4535 15.3888 24.4535 15.3888L24.8246 15.7544C18.7498 17.2033 15.9954 19.9171 15.9954 19.9171C16.2771 19.8575 28.5431 12.7806 43.4065 20.0958C43.4065 20.0958 40.6467 17.5581 34.9456 15.9331L35.4494 15.4375C36.2375 15.4402 40.4083 15.5865 44.8717 18.85C44.8717 18.85 49.8658 27.3812 49.8658 37.8625C49.7006 37.6621 46.7675 42.3746 39.2194 42.5371C39.2194 42.5371 37.941 41.0908 37.031 39.8288C41.4456 38.5612 43.0977 36.0262 43.0977 36.0262C34.5042 41.4375 26.9723 40.5925 17.9617 36.9362C17.8777 36.9362 17.8398 36.8983 17.7965 36.855V36.8387C17.7531 36.7981 17.7152 36.7575 17.6313 36.7575H17.4688C16.9163 36.3946 16.5479 36.2158 16.5479 36.2158C16.5479 36.2158 18.1973 38.7508 22.4358 40.0183C21.3227 41.2885 20.2204 42.7321 20.2204 42.7321C12.675 42.5533 9.92333 37.8408 9.92333 37.8408C9.92333 27.3433 14.8877 18.8283 14.8877 18.8283Z" fill="currentColor"/>
<path d="M36.0425 34.5881C37.9681 34.5881 39.5363 32.9631 39.5363 30.9589C39.5363 28.9683 37.9763 27.3433 36.0425 27.3433V27.3514C34.125 27.3514 32.5542 28.971 32.5488 30.9752C32.5488 32.9631 34.1169 34.5881 36.0425 34.5881Z" fill="currentColor"/>
<path d="M23.5354 34.5881C25.4611 34.5881 27.0292 32.9631 27.0292 30.9589C27.0292 28.9683 25.4719 27.3433 23.5463 27.3433L23.5354 27.3514C21.6098 27.3514 20.0417 28.971 20.0417 30.9752C20.0417 32.9631 21.6098 34.5881 23.5354 34.5881Z" fill="currentColor"/>
</svg>
