<svg x="0px" y="0px"
	 viewBox="0 0 512 512" style="enable-background:new 0 0 512 512;" xml:space="preserve">
<g>
	<g>
		<path d="M184.459,26.59c-0.46-0.46-0.97-0.87-1.52-1.24c-0.54-0.36-1.12-0.67-1.73-0.92c-0.6-0.25-1.23-0.44-1.87-0.57
			c-1.29-0.26-2.62-0.26-3.91,0c-0.63,0.13-1.26,0.32-1.87,0.57c-0.6,0.25-1.18,0.56-1.72,0.92c-0.55,0.37-1.06,0.78-1.52,1.24
			c-0.46,0.47-0.88,0.98-1.25,1.52c-0.36,0.55-0.66,1.13-0.91,1.73c-0.25,0.6-0.45,1.23-0.57,1.87c-0.13,0.65-0.2,1.3-0.2,1.96
			c0,2.63,1.07,5.21,2.93,7.07c0.46,0.46,0.971,0.88,1.52,1.24c0.54,0.36,1.12,0.67,1.72,0.92c0.61,0.25,1.24,0.44,1.87,0.57
			c0.65,0.13,1.31,0.2,1.96,0.2c0.65,0,1.31-0.07,1.95-0.2c0.64-0.13,1.27-0.32,1.87-0.57c0.61-0.25,1.19-0.56,1.73-0.92
			c0.55-0.36,1.06-0.78,1.52-1.24c1.86-1.87,2.93-4.44,2.93-7.07C187.389,31.03,186.319,28.46,184.459,26.59z"/>
	</g>
</g>
<g>
	<g>
		<path d="M383.195,230.726h-79.558v-6.662c0-3.536-0.618-6.93-1.744-10.085h74.184c21.166,0,38.386-17.22,38.386-38.386
			s-17.22-38.385-38.386-38.385H135.922c-10.138,0-18.385-8.248-18.385-18.386s8.248-18.385,18.385-18.385h240.155
			c21.166,0,38.386-17.22,38.386-38.386s-17.22-38.386-38.386-38.386H215.943c-5.523,0-10,4.477-10,10s4.477,10,10,10h160.134
			c10.138,0,18.386,8.248,18.386,18.386s-8.248,18.386-18.386,18.386H135.922c-21.166,0-38.385,17.22-38.385,38.385
			c0,21.166,17.22,38.386,38.385,38.386h240.155c10.138,0,18.386,8.248,18.386,18.385c0,10.138-8.248,18.386-18.386,18.386H238.446
			c-16.588,0-30.085,13.496-30.085,30.085v6.662h-79.557C57.782,230.726,0,288.507,0,359.53s57.782,128.805,128.805,128.805
			c44.096,0,85.25-22.779,108.789-59.827h36.813c23.539,37.047,64.693,59.827,108.789,59.827
			C454.218,488.335,512,430.553,512,359.53C511.999,288.507,454.217,230.726,383.195,230.726z M228.361,224.064
			c0-5.561,4.524-10.085,10.085-10.085h35.107c5.561,0,10.084,4.524,10.084,10.085v6.662h-55.276V224.064z M383.195,468.335
			c-38.908,0-75.107-20.997-94.472-54.798c-1.781-3.11-5.092-5.029-8.677-5.029h-48.094c-3.584,0-6.895,1.918-8.677,5.029
			c-19.364,33.8-55.563,54.797-94.471,54.797C68.81,468.335,20,419.525,20,359.53s48.81-108.805,108.805-108.805h254.39
			c59.994,0,108.804,48.81,108.804,108.805S443.189,468.335,383.195,468.335z"/>
	</g>
</g>
<g>
	<g>
		<path d="M193.692,325.004h-32.383v-32.383c0-5.523-4.477-10-10-10h-45.004c-5.523,0-10,4.477-10,10v32.383H63.922
			c-5.523,0-10,4.477-10,10v45.004c0,5.523,4.477,10,10,10h32.383v32.383c0,5.523,4.477,10,10,10h45.004c5.523,0,10-4.477,10-10
			v-32.383h32.383c5.523,0,10-4.477,10-10v-45.004C203.692,329.481,199.215,325.004,193.692,325.004z M183.692,370.008h-32.383
			c-5.523,0-10,4.477-10,10v32.383h-25.004v-32.383c0-5.523-4.477-10-10-10H73.922v-25.004h32.383c5.523,0,10-4.477,10-10v-32.383
			h25.004v32.383c0,5.523,4.477,10,10,10h32.383V370.008z"/>
	</g>
</g>
<g>
	<g>
		<path d="M336.688,277.051c-0.13-0.63-0.33-1.26-0.58-1.87c-0.25-0.6-0.55-1.18-0.909-1.72c-0.37-0.55-0.79-1.06-1.25-1.52
			c-0.46-0.47-0.971-0.88-1.52-1.25c-0.54-0.36-1.12-0.67-1.72-0.92c-0.61-0.25-1.24-0.44-1.88-0.57c-1.29-0.26-2.61-0.26-3.9,0
			c-0.64,0.13-1.27,0.32-1.87,0.57c-0.609,0.25-1.189,0.56-1.729,0.92c-0.55,0.37-1.061,0.78-1.521,1.25
			c-0.46,0.46-0.88,0.97-1.24,1.52c-0.359,0.54-0.67,1.12-0.92,1.72c-0.25,0.61-0.449,1.24-0.569,1.87c-0.13,0.65-0.2,1.3-0.2,1.96
			c0,0.65,0.07,1.3,0.2,1.95c0.12,0.64,0.319,1.269,0.569,1.87c0.25,0.6,0.561,1.19,0.92,1.73c0.36,0.54,0.78,1.06,1.24,1.52
			c0.46,0.46,0.971,0.88,1.521,1.24c0.54,0.36,1.12,0.67,1.729,0.92c0.601,0.25,1.23,0.44,1.87,0.57s1.3,0.2,1.95,0.2
			c0.65,0,1.31-0.07,1.95-0.2s1.27-0.32,1.88-0.57c0.6-0.25,1.18-0.56,1.72-0.92c0.55-0.36,1.06-0.78,1.52-1.24
			c0.46-0.461,0.88-0.98,1.25-1.52c0.359-0.54,0.659-1.13,0.909-1.73c0.25-0.6,0.45-1.23,0.58-1.87c0.12-0.65,0.19-1.3,0.19-1.95
			C336.878,278.351,336.808,277.701,336.688,277.051z"/>
	</g>
</g>
<g>
	<g>
		<path d="M288.214,269.007H185.119c-5.523,0-10,4.477-10,10s4.477,10,10,10h103.096c5.522,0,10-4.477,10-10
			C298.214,273.484,293.737,269.007,288.214,269.007z"/>
	</g>
</g>
<g>
	<g>
		<path d="M287.519,302.448H224.48c-5.523,0-10,4.477-10,10s4.477,10,10,10h63.039c5.523,0,10-4.477,10-10
			C297.519,306.925,293.042,302.448,287.519,302.448z"/>
	</g>
</g>
<g>
	<g>
		<path d="M464.84,334.715c-0.023-0.084-0.048-0.168-0.073-0.252c-7.647-24.982-27.135-44.471-52.132-52.133
			c-7.429-2.275-15.18-3.429-23.036-3.429c-7.856,0-15.606,1.153-23.037,3.429c-24.997,7.662-44.484,27.15-52.13,52.133
			c-0.025,0.083-0.05,0.166-0.072,0.25c-2.233,7.385-3.365,15.052-3.365,22.793c0,7.742,1.133,15.411,3.366,22.797
			c0.023,0.082,0.047,0.164,0.071,0.246c7.645,24.982,27.133,44.471,52.132,52.133c7.429,2.275,15.179,3.429,23.035,3.429
			c7.857,0,15.607-1.153,23.038-3.429c24.995-7.661,44.483-27.15,52.13-52.132c0.024-0.082,0.049-0.163,0.071-0.245
			c2.233-7.387,3.366-15.056,3.366-22.798C468.205,349.767,467.073,342.1,464.84,334.715z M389.599,299.002
			c5.962,0,10.811,4.85,10.811,10.811s-4.85,10.812-10.811,10.812c-5.962,0-10.811-4.85-10.811-10.812
			C378.788,303.852,383.637,299.002,389.599,299.002z M331.095,357.506c0-5.961,4.85-10.812,10.811-10.812
			c5.962,0,10.812,4.85,10.812,10.812c0,5.961-4.85,10.812-10.812,10.812C335.945,368.318,331.095,363.468,331.095,357.506z
			 M389.599,416.011c-5.962,0-10.811-4.85-10.811-10.812c0-5.961,4.85-10.811,10.811-10.811c5.962,0,10.811,4.85,10.811,10.811
			C400.411,411.161,395.561,416.011,389.599,416.011z M420.321,407.431c0.053-0.738,0.09-1.48,0.09-2.232
			c0-16.99-13.822-30.811-30.811-30.811s-30.811,13.822-30.811,30.811c0,0.751,0.036,1.493,0.09,2.23
			c-7.822-4.809-14.402-11.382-19.206-19.202c0.739,0.053,1.483,0.09,2.236,0.09c16.989,0,30.812-13.822,30.812-30.812
			c0-16.99-13.822-30.812-30.812-30.812c-0.753,0-1.497,0.037-2.236,0.09c4.804-7.819,11.385-14.393,19.206-19.202
			c-0.053,0.738-0.09,1.48-0.09,2.23c0,16.99,13.822,30.812,30.811,30.812s30.811-13.822,30.811-30.812
			c0-0.751-0.036-1.493-0.09-2.231c7.823,4.808,14.403,11.382,19.208,19.202c-0.74-0.053-1.483-0.09-2.236-0.09
			c-16.989,0-30.812,13.822-30.812,30.812s13.822,30.812,30.812,30.812c0.753,0,1.497-0.037,2.236-0.09
			C434.724,396.048,428.144,402.622,420.321,407.431z M437.293,368.318c-5.962,0-10.812-4.85-10.812-10.812
			c0-5.961,4.85-10.812,10.812-10.812c5.961,0.001,10.811,4.851,10.811,10.812S443.254,368.318,437.293,368.318z"/>
	</g>
</g>
<g>
</g>
<g>
</g>
<g>
</g>
<g>
</g>
<g>
</g>
<g>
</g>
<g>
</g>
<g>
</g>
<g>
</g>
<g>
</g>
<g>
</g>
<g>
</g>
<g>
</g>
<g>
</g>
<g>
</g>
</svg>
